<?xml version="1.0" encoding="utf-8"?>
<!-- Generator: Adobe Illustrator 17.0.0, SVG Export Plug-In . SVG Version: 6.00 Build 0)  -->
<!DOCTYPE svg PUBLIC "-//W3C//DTD SVG 1.1//EN" "http://www.w3.org/Graphics/SVG/1.1/DTD/svg11.dtd">
<svg version="1.1" id="Layer_1" xmlns="http://www.w3.org/2000/svg" xmlns:xlink="http://www.w3.org/1999/xlink" x="0px" y="0px"
	 width="68px" height="30px" viewBox="0 0 68 30" enable-background="new 0 0 68 30" xml:space="preserve">
<g>
	<path fill="#FFFFFF" d="M43.706,10.687c-2.074-0.025-2.854,1.858-2.854,3.887c0,1.833,0.683,3.958,2.854,3.958
		c2.272-0.025,2.832-2.298,2.832-3.958C46.539,12.47,45.611,10.71,43.706,10.687z"/>
	<path fill="#FFFFFF" d="M56.525,10.392c-1.78,0-2.851,1.101-3.245,2.836h6.25C59.334,11.592,58.115,10.392,56.525,10.392z"/>
	<path fill="#FFFFFF" d="M68,9.379c0-2.067-1.674-3.745-3.74-3.745c-1.067,0-2.027,0.449-2.709,1.165
		c-1.581-1.101-3.499-1.748-5.57-1.748c-2.094,0-4.029,0.663-5.615,1.784c-0.718-0.663-1.671-1.069-2.723-1.069
		c-0.781,0-1.509,0.226-2.124,0.613c-1.465-2.608-4.25-4.373-7.451-4.373c-2.923,0-5.5,1.468-7.043,3.707
		c-1.291-1.327-3.093-2.152-5.087-2.152c-1.32,0-2.55,0.365-3.607,0.993C22.307,2.036,20.26,0,17.736,0
		c-2.538,0-4.595,2.06-4.595,4.6c0,0.059,0.006,0.117,0.008,0.175c-0.492-0.074-0.996-0.114-1.509-0.114
		c-1.494,0-2.911,0.332-4.184,0.919C6.743,5.197,5.929,4.978,5.062,4.978C2.267,4.978,0,7.247,0,10.046
		c0,1.483,0.641,2.812,1.653,3.74c-0.029,0.303-0.044,0.608-0.044,0.92c0,5.546,4.49,10.044,10.029,10.044
		c2.154,0,4.147-0.682,5.783-1.838c1.472,2.016,3.842,3.332,6.525,3.332c0.066,0,0.13-0.009,0.195-0.01
		C24.914,28.425,26.995,30,29.45,30c2.485,0,4.59-1.614,5.337-3.853c0.851,1.616,2.545,2.72,4.496,2.72
		c2.444,0,4.48-1.726,4.969-4.025c0.353,0.05,0.71,0.083,1.077,0.083c1.987,0,3.795-0.755,5.17-1.987
		c1.562,1.062,3.448,1.684,5.482,1.684c5.398,0,9.775-4.381,9.775-9.786c0-0.669-0.068-1.321-0.196-1.952
		C66.983,12.358,68,10.988,68,9.379z M61.336,15.281h-8.059c0,1.883,1.219,3.251,3.294,3.251c2.686,0,2.686-1.759,4.127-1.759
		c0.85,0,1.464,0.733,1.464,1.393c0,2.151-3.445,3.153-5.591,3.153c-4.053,0-6.053-2.236-6.656-4.741
		c-0.537,2.628-2.255,4.741-5.309,4.741c-1.635,0-2.854-0.661-3.513-1.808h-0.051v4.767c0,1.173-0.708,1.783-1.781,1.783
		s-1.783-0.61-1.783-1.783V10.979l-4.004,11.367c-0.855,2.443-1.832,3.715-4.077,3.715c-1.586,0-2.246-0.781-2.246-1.637
		c0-0.953,0.683-1.442,1.635-1.442h0.367c0.463,0,0.977-0.024,1.245-1.125l-3.71-10.583c-0.129-0.382-0.231-0.669-0.301-0.91
		c-0.081,0.107-0.175,0.206-0.285,0.323l-2.638,2.762l3.71,4.986c0.123,0.171,0.367,0.562,0.367,1.148
		c0,0.904-0.734,1.735-1.685,1.735c-0.879,0-1.342-0.44-1.611-0.831l-3.367-4.767l-1.247,1.099v2.713
		c0,1.173-0.706,1.784-1.781,1.784c-1.073,0-1.781-0.611-1.781-1.784v-1.312c-0.641,2.107-3.023,3.097-5.321,3.097
		c-3.222,0-5.908-1.443-5.908-3.203c0-0.783,0.44-1.492,1.44-1.492c1.54,0,1.686,2.2,4.321,2.2c1.27,0,2.076-0.563,2.076-1.297
		c0-0.904-0.781-1.052-2.049-1.37l-2.1-0.512c-2.074-0.513-3.686-1.37-3.686-3.766c0-2.908,2.883-3.984,5.347-3.984
		c2.711,0,5.445,1.077,5.445,2.713c0,0.831-0.561,1.563-1.489,1.563c-1.392,0-1.441-1.637-3.687-1.637
		c-1.245,0-2.051,0.341-2.051,1.099c0,0.832,0.806,1.028,1.907,1.271l1.487,0.343c1.712,0.392,3.694,1.067,4.272,2.765V4.869
		c0-1.173,0.709-1.784,1.782-1.784c1.075,0,1.781,0.611,1.781,1.784v8.115l3.957-4.4c0.368-0.392,0.83-0.684,1.365-0.684
		c0.582,0,1.197,0.372,1.496,0.918c0.29-0.554,0.866-0.918,1.534-0.918c0.951,0,1.611,0.537,1.83,1.343l2.296,8.333h0.049
		l2.172-8.09c0.244-0.904,0.733-1.589,1.709-1.589c0.843,0,1.33,0.417,1.586,0.848c0.22-0.553,0.695-0.848,1.465-0.848
		c1.051,0,1.614,0.588,1.614,1.686v0.563h0.05c0.585-1.513,2.027-2.248,3.76-2.248c2.544,0,4.815,1.594,5.425,4.936
		c0.695-3.021,3.015-4.936,6.515-4.936c4.101,0,6.445,2.908,6.445,5.842C62.897,14.963,62.531,15.279,61.336,15.281z M63.75,8.569
		h-0.672v1.832h-0.496V8.569h-0.674V8.155h1.841L63.75,8.569L63.75,8.569z M66.426,10.4h-0.462V8.808h-0.009l-0.55,1.592h-0.379
		l-0.552-1.576h-0.006V10.4h-0.463V8.155h0.694l0.526,1.544h0.006l0.498-1.544h0.695L66.426,10.4L66.426,10.4z"/>
</g>
</svg>
